<?xml version="1.0" encoding="utf-8"?>
<!-- Svg Vector Icons : http://www.onlinewebfonts.com/icon -->
<!DOCTYPE svg PUBLIC "-//W3C//DTD SVG 1.1//EN" "http://www.w3.org/Graphics/SVG/1.1/DTD/svg11.dtd">
<svg version="1.1" xmlns="http://www.w3.org/2000/svg" xmlns:xlink="http://www.w3.org/1999/xlink" x="0px" y="0px" viewBox="0 0 1000 1000" enable-background="new 0 0 1000 1000" xml:space="preserve">
<metadata> Svg Vector Icons : http://www.onlinewebfonts.com/icon </metadata>
<g><g transform="translate(0.000000,346.000000) scale(0.100000,-0.100000)"><path d="M5743,2377.1c-239.6-110.6-352.4-393.9-251.1-638c25.4-64.5,412.3-467.6,1386.6-1441.8l1352-1354.3H4335.7H440.9l-101.3-53c-55.3-29.9-131.3-99-170.4-152c-62.2-89.8-69.1-115.2-69.1-278.7c0-163.5,6.9-188.9,69.1-278.7c39.2-52.9,115.2-122.1,170.4-152l101.3-53h3894.8h3894.8l-1352-1354.3c-976.6-976.6-1361.2-1377.4-1386.6-1441.8c-172.7-421.5,262.6-826.9,667.9-624.2c87.5,43.8,520.6,465.3,1888.7,1835.7C9186.4-2469,9838.2-1798.7,9861.2-1743.4c55.3,117.5,50.7,301.7-9.2,421.5c-71.4,142.8-3593.1,3657.6-3715.2,3706C6019.4,2432.4,5855.9,2430.1,5743,2377.1z"/></g></g>
</svg>