<svg xmlns="http://www.w3.org/2000/svg" width="171" height="40" viewBox="0 0 171 40">
    <g fill="none">
        <path fill="#002169" d="M36.592 5.47h2.412v11.897h-2.42l.008-11.898zm.067-2.908h2.303v2.073h-2.303V2.562zM40 15.742l1.459-1.82c.796.696 1.764 1.345 2.951 1.345.95 0 1.527-.478 1.527-1.175v-.017c0-.597-.34-.973-2.037-1.619-2.101-.82-3.399-1.619-3.399-3.661V8.76c0-2.08 1.595-3.494 3.884-3.494 1.415-.011 2.783.512 3.832 1.465l-1.374 1.875C46.1 7.993 45.232 7.5 44.317 7.5c-.85 0-1.374.424-1.374 1.039v.028c0 .68.408 1.004 2.266 1.77 2.07.82 3.19 1.707 3.19 3.562v.034c0 2.213-1.68 3.576-3.986 3.576-1.643.005-3.224-.628-4.413-1.767zM51.528 7.695L48.541 7.695 48.541 5.409 56.94 5.409 56.94 7.695 53.961 7.695 53.961 17.367 51.528 17.367zM60.039 5.41h2.337l4.243 11.957h-2.546l-.883-2.582h-4.068l-.849 2.582h-2.472l4.238-11.958zm2.421 7.202L61.173 8.74l-1.304 3.872h2.591zM67.473 5.409L69.751 5.409 74.306 12.379 74.306 5.409 76.726 5.409 76.726 17.367 74.614 17.367 69.893 10.143 69.893 17.367 67.473 17.367zM78.437 5.41h4.413c1.323 0 2.426.359 3.103 1.04.533.54.822 1.275.8 2.035v.051c0 1.401-.766 2.151-1.613 2.614 1.272.493 2.12 1.28 2.12 2.853v.085c0 2.152-1.7 3.279-4.291 3.279h-4.535l.003-11.958zm5.89 3.517c0-.87-.613-1.332-1.664-1.332h-1.834v2.699h1.715c1.085 0 1.782-.442 1.782-1.35v-.017zm-1.341 3.452h-2.157v2.802h2.214c1.102 0 1.796-.48 1.796-1.4v-.018c-.005-.853-.632-1.384-1.853-1.384zM88.256 12.694V5.41h2.478v7.302c0 1.683.803 2.518 2.085 2.518 1.281 0 2.087-.818 2.087-2.467V5.41h2.46v7.234c0 3.283-1.812 4.866-4.567 4.866-2.756 0-4.543-1.6-4.543-4.815zM98.932 5.409L101.394 5.409 101.394 15.089 106.192 15.089 106.192 17.367 98.932 17.367zM38.696 36.323l1.256-1.87c-2.393-.568-3.938-2.773-3.938-5.887v-.16c0-3.605 2.24-6.054 5.386-6.054 1.442-.05 2.833.53 3.816 1.588l-1.477 1.91c-.712-.73-1.46-1.191-2.427-1.191-1.596 0-2.766 1.48-2.766 3.793v.051c0 2.365 1.221 3.811 2.8 3.811.95 0 1.647-.44 2.444-1.242l1.477 1.753c-.984 1.02-2.018 1.668-3.58 1.77l-.967 2.558-2.024-.83zM45.552 28.648v-.194c0-3.591 2.253-6.105 5.42-6.105s5.398 2.497 5.398 6.07v.206c0 3.577-2.254 6.108-5.42 6.108-3.167 0-5.398-2.511-5.398-6.085zm8.25-.051v-.12c0-2.36-1.195-3.848-2.853-3.848-1.657 0-2.853 1.47-2.853 3.83v.12c0 2.36 1.213 3.849 2.87 3.849 1.658 0 2.825-1.472 2.825-3.831h.011zM57.224 28.697v-.158c0-3.6 2.24-6.045 5.388-6.045 1.442-.051 2.835.525 3.82 1.58l-1.484 1.912c-.711-.73-1.46-1.189-2.427-1.189-1.596 0-2.767 1.478-2.767 3.787v.051c0 2.36 1.222 3.803 2.801 3.803.95 0 1.648-.44 2.445-1.239l1.477 1.75c-1.07 1.103-2.206 1.784-4.024 1.784-3.125-.006-5.229-2.402-5.229-6.036zM67.331 29.915v-7.282h2.477v7.302c0 1.686.805 2.519 2.087 2.519 1.281 0 2.083-.816 2.083-2.468v-7.353h2.463v7.231c0 3.286-1.812 4.87-4.566 4.87-2.755 0-4.544-1.601-4.544-4.819zM78.007 22.633L80.461 22.633 80.461 27.788 84.34 22.633 87.232 22.633 83.255 27.703 87.402 34.582 84.524 34.582 81.564 29.673 80.461 31.073 80.461 34.591 78.007 34.591zM94.49 22.491h2.336l4.242 11.957h-2.545l-.882-2.581h-4.058l-.863 2.581h-2.47l4.24-11.957zm2.421 7.2l-1.287-3.872-1.303 3.872h2.59zM102.064 22.633L104.521 22.633 104.521 27.792 108.394 22.633 111.289 22.633 107.311 27.706 111.459 34.591 108.581 34.591 105.618 29.678 104.521 31.07 104.521 34.591 102.067 34.591z"/>
        <path fill="#002169" d="M115.05 22.491h2.364l4.294 11.957h-2.576l-.89-2.581h-4.117l-.876 2.581h-2.502l4.303-11.957zm2.45 7.2l-1.302-3.872-1.32 3.872h2.622zM122.562 22.633h3.849c3.456 0 5.689 2.391 5.689 5.892v.154c0 3.504-2.23 5.912-5.69 5.912h-3.848V22.633zm2.47 2.237v7.481h1.362c1.871 0 3.149-1.315 3.149-3.689v-.086c0-2.373-1.278-3.709-3.15-3.709l-1.362.003zM133.381 22.491L140.997 22.491 140.997 24.73 135.812 24.73 135.812 27.299 140.374 27.299 140.374 29.54 135.812 29.54 135.812 32.207 141.068 32.207 141.068 34.448 133.381 34.448zM142.349 22.633L144.954 22.633 147.626 27.484 150.263 22.633 152.883 22.633 152.883 34.591 150.449 34.591 150.449 26.953 147.626 31.892 147.574 31.892 144.766 26.987 144.766 34.591 142.349 34.591zM154.59 22.551h2.42v11.897h-2.42V22.551zm.068-2.907h2.302V21.7h-2.302v-2.055zM158.007 32.845l1.457-1.825c.799.7 1.765 1.347 2.952 1.347.952 0 1.527-.476 1.527-1.176v-.017c0-.596-.34-.971-2.034-1.62-2.105-.818-3.4-1.618-3.4-3.666v-.045c0-2.079 1.595-3.494 3.884-3.494 1.416-.013 2.785.511 3.834 1.466l-1.371 1.874c-.748-.612-1.613-1.108-2.53-1.108-.85 0-1.375.428-1.375 1.04v.017c0 .683.408 1.008 2.267 1.774 2.068.817 3.188 1.708 3.188 3.562v.034c0 2.219-1.678 3.583-3.987 3.583-1.64.01-3.22-.615-4.412-1.746zM167.687 22.551h2.42v11.897h-2.42V22.551zm.067-2.907h2.303V21.7h-2.303v-2.055z"/>
        <path fill="#00B0AB" d="M17.082 0H24.057000000000002V17.367H17.082z"/>
        <path fill="#3F4D9C" d="M21.182 34.591L14.093 34.559 24.085 17.367 31.174 17.398z"/>
        <path fill="#E41915" d="M7.086 22.633L0 22.602 9.993 5.409 17.082 5.441z"/>
        <path fill="#FCBD00" d="M7.117 22.633H14.091999999999999V40H7.117z"/>
    </g>
</svg>
